<svg width="12" height="12" viewBox="0 0 12 12" fill="none" xmlns="http://www.w3.org/2000/svg">
<path d="M4.75 12C4.7075 12 4.665 11.9895 4.627 11.9675C4.5485 11.923 4.5 11.84 4.5 11.75V6.699C4.5 6.4845 4.408 6.2805 4.248 6.1385L0.419 2.737C0.153 2.5015 0 2.1595 0 1.8V0.75C0 0.3365 0.3365 0 0.75 0H11.25C11.6635 0 12 0.3365 12 0.75V1.8C12 2.1595 11.847 2.5015 11.5805 2.7375L7.752 6.139C7.592 6.281 7.5 6.485 7.5 6.699V9.9665C7.5 10.228 7.361 10.4745 7.136 10.6095L4.878 11.964C4.839 11.988 4.7945 12 4.75 12ZM0.75 0.5C0.6125 0.5 0.5 0.612 0.5 0.75V1.8C0.5 2.0165 0.5915 2.222 0.7505 2.3625L4.58 5.7645C4.8465 6.0015 5 6.342 5 6.699V11.3085L6.879 10.1815C6.9535 10.1365 7 10.054 7 9.967V6.6995C7 6.3425 7.1535 6.0015 7.42 5.765L11.249 2.3635C11.4085 2.222 11.5 2.0165 11.5 1.8V0.75C11.5 0.612 11.3875 0.5 11.25 0.5H0.75Z" fill="#FF7010"/>
</svg>
